# xmcd
#
# Track frame offsets:
# 150
# 31682
# 50729
# 63381
# 78378
# 94674
# 109285
# 128340
# 132475
# 147086
# 164458
# 198352
# 219413
# 236183
# 255144
# 269385
# 302040
# 323716
#
# Disc length: 4648 seconds
#
# Revision: 0
# Processed by: cddbd v1.5PL3 Copyright (c) Steve Scherf et al.
# Submitted via: Audion 3.0.2 (http://www.panic.com/audion/)
#
DISCID=f9122612
DTITLE=compile - Lime Compyl cd
DYEAR=1900
DGENRE=
TTITLE0=01
TTITLE1=02
TTITLE2=03
TTITLE3=04
TTITLE4=05
TTITLE5=06
TTITLE6=07
TTITLE7=08
TTITLE8=09
TTITLE9=10
TTITLE10=11
TTITLE11=12
TTITLE12=13
TTITLE13=14
TTITLE14=15
TTITLE15=16
TTITLE16=17
TTITLE17=18
EXTD=
EXTT0=
EXTT1=
EXTT2=
EXTT3=
EXTT4=
EXTT5=
EXTT6=
EXTT7=
EXTT8=
EXTT9=
EXTT10=
EXTT11=
EXTT12=
EXTT13=
EXTT14=
EXTT15=
EXTT16=
EXTT17=
PLAYORDER=
